  <svg width="126" height="48" viewBox="0 0 126 48" fill="none" xmlns="http://www.w3.org/2000/svg">
    <rect width="126" height="48" rx="24" fill="#F0F1F5" />
    <path d="M33.3917 12C33.5356 13.3013 33.0171 14.5836 32.2591 15.5262C31.4682 16.4541 30.2029 17.1638 28.9706 17.0724C28.8093 15.8202 29.4337 14.4888 30.1327 13.6764C30.9227 12.7546 32.2947 12.0483 33.3917 12Z" fill="#111111" />
    <path d="M37.4258 19.5066C37.2882 19.5883 35.0092 20.9409 35.0341 23.6995C35.0627 27.0308 37.9644 28.132 38 28.1441C37.9827 28.2217 37.5456 29.7334 36.4572 31.2684C35.5484 32.6197 34.5962 33.9409 33.0838 33.965C32.3647 33.9815 31.8792 33.7759 31.3733 33.5616C30.8456 33.3381 30.2957 33.1052 29.4354 33.1052C28.5233 33.1052 27.949 33.3456 27.3951 33.5774C26.9162 33.7778 26.4526 33.9719 25.7992 33.9987C24.3587 34.0513 23.2582 32.5559 22.3164 31.2167C20.4337 28.4822 18.9681 23.5107 20.9332 20.1276C21.8854 18.4685 23.6216 17.4 25.4774 17.3715C26.2946 17.3549 27.0785 17.6681 27.7656 17.9427C28.291 18.1526 28.7599 18.34 29.144 18.34C29.4813 18.34 29.9371 18.1601 30.4683 17.9505C31.3054 17.6201 32.3298 17.2158 33.3734 17.325C34.0871 17.3457 36.1181 17.6052 37.4285 19.505L37.4258 19.5066Z" fill="#111111" />
    <path d="M45 12.1791V17.6777H46.8696C48.5234 17.6777 49.4948 16.6603 49.4948 14.9265C49.4948 13.1965 48.5195 12.1791 46.8696 12.1791H45ZM45.6939 12.7964H46.8234C48.0878 12.7964 48.7855 13.5585 48.7855 14.9341C48.7855 16.2983 48.0839 17.0604 46.8234 17.0604H45.6939V12.7964Z" fill="#111111" />
    <path d="M50.4468 17.6777H51.1175V13.7148H50.4468V17.6777ZM50.7822 13.0098C51.0173 13.0098 51.2023 12.8231 51.2023 12.5944C51.2023 12.362 51.0173 12.1791 50.7822 12.1791C50.5509 12.1791 50.362 12.362 50.362 12.5944C50.362 12.8231 50.5509 13.0098 50.7822 13.0098Z" fill="#111111" />
    <path d="M52.1119 14.8084C52.1119 15.38 52.4782 15.7267 53.2337 15.9058L53.8698 16.0582C54.3285 16.1688 54.4865 16.3326 54.4865 16.6184C54.4865 16.9766 54.1512 17.2052 53.6076 17.2052C53.0641 17.2052 52.7557 16.988 52.6748 16.5346H52.004C52.0811 17.2776 52.667 17.7463 53.6076 17.7463C54.502 17.7463 55.1612 17.2586 55.1612 16.5689C55.1612 16.0011 54.8682 15.6886 54.0587 15.4943L53.4226 15.3419C52.9754 15.2352 52.7711 15.0484 52.7711 14.7741C52.7711 14.4273 53.0949 14.1873 53.5845 14.1873C54.0779 14.1873 54.3863 14.4426 54.4364 14.8579H55.0763C55.0494 14.1568 54.4634 13.6462 53.5845 13.6462C52.7172 13.6462 52.1119 14.1301 52.1119 14.8084Z" fill="#111111" />
    <path d="M57.9635 13.6462C57.3814 13.6462 56.915 13.9396 56.6683 14.3854H56.6528V13.7148H56.0168V19H56.6875V17.0338H56.7029C56.942 17.4682 57.4045 17.7463 57.9789 17.7463C58.9889 17.7463 59.6789 16.9385 59.6789 15.6962C59.6789 14.454 58.985 13.6462 57.9635 13.6462ZM57.8324 17.1633C57.1463 17.1633 56.6837 16.5803 56.6837 15.6962C56.6837 14.816 57.1463 14.2292 57.8324 14.2292C58.5456 14.2292 58.9927 14.8008 58.9927 15.6962C58.9927 16.5955 58.5456 17.1633 57.8324 17.1633Z" fill="#111111" />
    <path d="M62.1767 17.7463C63.2831 17.7463 64.0309 16.9575 64.0309 15.6962C64.0309 14.4311 63.2831 13.6462 62.1767 13.6462C61.0665 13.6462 60.3187 14.4311 60.3187 15.6962C60.3187 16.9575 61.0665 17.7463 62.1767 17.7463ZM62.1767 17.1633C61.4674 17.1633 61.001 16.6298 61.001 15.6962C61.001 14.7627 61.4674 14.2292 62.1767 14.2292C62.886 14.2292 63.3486 14.7627 63.3486 15.6962C63.3486 16.6298 62.886 17.1633 62.1767 17.1633Z" fill="#111111" />
    <path d="M64.8673 17.6777H65.538V15.3457C65.538 14.675 65.9505 14.233 66.5827 14.233C67.1995 14.233 67.504 14.5836 67.504 15.2237V17.6777H68.1748V15.1056C68.1748 14.2063 67.6659 13.6462 66.787 13.6462C66.1664 13.6462 65.7385 13.9205 65.5149 14.3473H65.4995V13.7148H64.8673V17.6777Z" fill="#111111" />
    <path d="M69.2231 17.6777H69.8939V13.7148H69.2231V17.6777ZM69.8245 13.1432L70.7265 12H69.9903L69.3041 13.1432H69.8245Z" fill="#111111" />
    <path d="M74.2459 13.7148H73.5482L72.4379 16.9728H72.4225L71.3162 13.7148H70.6107L72.0872 17.6777H72.7733L74.2459 13.7148Z" fill="#111111" />
    <path d="M76.4237 14.2216C77.0559 14.2216 77.4761 14.6941 77.4915 15.3571H75.3135C75.3559 14.6979 75.7954 14.2216 76.4237 14.2216ZM77.4761 16.5422C77.3643 16.9156 76.9904 17.1709 76.4816 17.1709C75.7607 17.1709 75.3097 16.6717 75.3097 15.9134V15.8753H78.1854V15.6238C78.1854 14.4235 77.5185 13.6462 76.4353 13.6462C75.3289 13.6462 74.6197 14.4807 74.6197 15.7115C74.6197 16.9575 75.3174 17.7463 76.4661 17.7463C77.3412 17.7463 78.0197 17.2357 78.1353 16.5422H77.4761Z" fill="#111111" />
    <path d="M79.0565 17.6777H79.7272V12.1791H79.0565V17.6777Z" fill="#111111" />
    <path d="M82.5679 17.6777H83.2387V15.3457C83.2387 14.675 83.6512 14.233 84.2834 14.233C84.9002 14.233 85.2047 14.5836 85.2047 15.2237V17.6777H85.8754V15.1056C85.8754 14.2063 85.3666 13.6462 84.4877 13.6462C83.867 13.6462 83.4392 13.9205 83.2156 14.3473H83.2001V13.7148H82.5679V17.6777Z" fill="#111111" />
    <path d="M88.2113 17.1824C87.7295 17.1824 87.4095 16.9347 87.4095 16.5574C87.4095 16.184 87.7179 15.9477 88.2576 15.9134L89.3293 15.8487V16.1726C89.3293 16.7441 88.8435 17.1824 88.2113 17.1824ZM88.061 17.7463C88.6007 17.7463 89.1095 17.4491 89.3485 16.9956H89.3639V17.6777H90V14.9379C90 14.1492 89.4063 13.6462 88.4658 13.6462C87.5175 13.6462 86.9238 14.172 86.8775 14.8579H87.5252C87.61 14.4692 87.9338 14.2292 88.4503 14.2292C89.0054 14.2292 89.3293 14.5188 89.3293 15.0027V15.3342L88.1805 15.399C87.2553 15.4524 86.7272 15.8792 86.7272 16.5574C86.7272 17.27 87.263 17.7463 88.061 17.7463Z" fill="#111111" />
    <path fillRule="evenodd" d="M78.9992 32.3582C79.6027 31.8274 79.9033 31.1398 79.9033 30.2947C79.9033 29.6079 79.6976 29.0323 79.2853 28.5724C78.8714 28.111 78.2281 27.7086 77.3523 27.3644C76.6363 27.0889 76.1429 26.8336 75.8713 26.5977C75.5593 26.3424 75.404 26.0176 75.404 25.6249C75.404 25.2703 75.5401 24.9709 75.8117 24.7253C76.133 24.4506 76.5812 24.3125 77.1549 24.3125C77.8808 24.3125 78.5295 24.4648 79.1032 24.7694L79.5109 23.4718C78.8967 23.1575 78.1271 23 77.2008 23C76.162 23 75.3313 23.2606 74.7087 23.7824C74.0837 24.3035 73.7716 24.9732 73.7716 25.7899C73.7716 27.0397 74.662 27.9901 76.4443 28.6388C77.0991 28.8755 77.568 29.1316 77.8487 29.407C78.131 29.6825 78.2717 30.0222 78.2717 30.4254C78.2717 30.8778 78.1011 31.2406 77.7592 31.5109C77.4158 31.7811 76.9377 31.917 76.3234 31.917C75.4675 31.917 74.6819 31.705 73.9659 31.2824L73.588 32.6091C74.2528 33.0219 75.1309 33.228 76.2263 33.228C77.4127 33.228 78.336 32.9383 78.9992 32.3582ZM51.8569 33.081H53.594L50.301 23.1456H48.277L45 33.081H46.6913L47.5977 30.1626H50.9053L51.8569 33.081ZM49.7579 26.3439L50.6184 28.9383H47.8853L48.7306 26.3439C48.9524 25.519 49.1138 24.8948 49.214 24.4723H49.2446C49.4963 25.4548 49.6669 26.0789 49.7579 26.3439ZM61.0096 32.2993C61.6843 31.5923 62.0217 30.6292 62.0217 29.4108C62.0217 28.3201 61.7325 27.4406 61.1527 26.7717C60.5744 26.1035 59.8515 25.7698 58.9856 25.7698C57.878 25.7698 57.0526 26.1968 56.5088 27.0524H56.4782L56.3871 25.9169H54.9529C54.9927 26.7232 55.0133 27.5093 55.0133 28.2753V36H56.6442V32.2261H56.6748C57.0978 32.904 57.7923 33.2429 58.7592 33.2429C59.6549 33.2429 60.4053 32.9286 61.0096 32.2993ZM59.8768 27.7445C60.1996 28.1969 60.3602 28.7718 60.3602 29.469C60.3602 30.2261 60.1889 30.8353 59.8462 31.2974C59.5043 31.7588 59.0262 31.9902 58.4119 31.9902C57.8887 31.9902 57.4634 31.811 57.136 31.4519C56.8086 31.0928 56.6449 30.6531 56.6449 30.132V28.9375C56.6449 28.8106 56.6702 28.6493 56.7207 28.4522C56.8209 28.0297 57.035 27.6885 57.3624 27.4272C57.6891 27.1681 58.0547 27.0367 58.4571 27.0367C59.0506 27.0367 59.5241 27.2726 59.8768 27.7445ZM70.4639 29.4108C70.4639 30.6292 70.1265 31.5923 69.4511 32.2993C68.8476 32.9286 68.0971 33.2429 67.2014 33.2429C66.2345 33.2429 65.54 32.904 65.1177 32.2261H65.0871V36H63.4563V28.2753C63.4563 27.5093 63.4356 26.7232 63.3959 25.9169H64.8301L64.9211 27.0524H64.9517C65.4948 26.1968 66.3202 25.7698 67.4286 25.7698C68.2937 25.7698 69.0166 26.1035 69.5964 26.7717C70.1739 27.4406 70.4639 28.3201 70.4639 29.4108ZM68.8024 29.469C68.8024 28.7718 68.641 28.1969 68.3182 27.7445C67.9656 27.2726 67.4936 27.0367 66.8993 27.0367C66.4961 27.0367 66.1313 27.1681 65.8039 27.4272C65.4765 27.6885 65.2631 28.0297 65.1629 28.4522C65.1131 28.6493 65.0871 28.8106 65.0871 28.9375V30.132C65.0871 30.6531 65.2508 31.0928 65.5767 31.4519C65.9041 31.8103 66.3294 31.9902 66.8541 31.9902C67.4684 31.9902 67.9465 31.7588 68.2884 31.2974C68.6311 30.8353 68.8024 30.2261 68.8024 29.469ZM85.2953 27.1115H83.4977V30.5897C83.4977 31.4744 83.8144 31.9164 84.4492 31.9164C84.7407 31.9164 84.9824 31.8917 85.1736 31.8425L85.2188 33.0512C84.8975 33.1684 84.4745 33.2274 83.9505 33.2274C83.3064 33.2274 82.8031 33.0355 82.4398 32.6525C82.0779 32.2688 81.8959 31.6252 81.8959 30.7211V27.11H80.825V25.9155H81.8959V24.6038L83.4977 24.1319V25.9155H85.2953V27.1115ZM92.4387 32.1522C93.0828 31.4452 93.4056 30.5411 93.4056 29.4399C93.4056 28.3686 93.0935 27.4944 92.4678 26.8172C91.8138 26.1192 90.9471 25.7705 89.8701 25.7705C88.7525 25.7705 87.8637 26.1244 87.2051 26.8322C86.5449 27.5392 86.216 28.4485 86.216 29.5586C86.216 30.6195 86.5357 31.4997 87.1752 32.197C87.8147 32.8943 88.6722 33.2429 89.7492 33.2429C90.8668 33.2429 91.7633 32.8801 92.4387 32.1522ZM91.276 27.7915C91.569 28.2641 91.7136 28.8307 91.7136 29.4914C91.7136 30.1514 91.5621 30.724 91.2615 31.2055C90.9089 31.7864 90.4201 32.0775 89.7974 32.0775C89.1618 32.0775 88.6691 31.7923 88.3165 31.2205C88.0235 30.7486 87.879 30.182 87.879 29.5213C87.879 28.8404 88.0235 28.2648 88.3165 27.7915C88.6584 27.2204 89.1564 26.9344 89.812 26.9344C90.4453 26.9344 90.9341 27.2196 91.276 27.7915ZM98.7067 27.3167C98.5453 27.2876 98.3732 27.2726 98.1927 27.2726C97.619 27.2726 97.1753 27.4839 96.8633 27.9072C96.5917 28.2805 96.4555 28.7523 96.4555 29.322V33.0809H94.8255L94.8408 28.173C94.8408 27.3473 94.8201 26.5955 94.7796 25.9176H96.2001L96.2597 27.2883H96.3049C96.477 26.8172 96.7485 26.438 97.1203 26.1535C97.4836 25.8975 97.876 25.7698 98.299 25.7698C98.4497 25.7698 98.5859 25.7803 98.7067 25.7989V27.3167ZM105.94 29.8817C105.981 29.6853 106 29.445 106 29.1598C106 28.2661 105.784 27.5136 105.353 26.9051C104.809 26.1392 104.008 25.7562 102.95 25.7562C101.873 25.7562 101.017 26.1392 100.384 26.9051C99.7788 27.6226 99.4766 28.5222 99.4766 29.6025C99.4766 30.7029 99.8017 31.5801 100.45 32.2334C101.101 32.8866 101.994 33.2136 103.132 33.2136C104.078 33.2136 104.898 33.0665 105.593 32.7709L105.338 31.666C104.743 31.8922 104.082 32.0049 103.358 32.0049C102.703 32.0049 102.17 31.8377 101.758 31.504C101.303 31.1307 101.067 30.5894 101.048 29.8817H105.94ZM104.128 27.5233C104.349 27.8675 104.456 28.2751 104.445 28.7469V28.7462H101.048C101.098 28.2654 101.259 27.8525 101.53 27.5084C101.862 27.0753 102.295 26.8596 102.829 26.8596C103.412 26.8596 103.846 27.0806 104.128 27.5233Z" fill="#111111" />
  </svg>