<svg width="17" height="20" viewBox="0 0 17 20" fill="none" xmlns="http://www.w3.org/2000/svg">
<g clip-path="url(#clip0_951_6532)">
<path d="M10.0074 4.99609H8.00293V7.98799H10.0074V4.99609Z" fill="black"/>
<path d="M14.0015 4.00884V16.0059C13.9976 16.535 13.7847 17.041 13.4092 17.4137C13.0337 17.7865 12.5262 17.9956 11.9971 17.9956H3.99416C3.73288 17.9956 3.47409 17.9441 3.23269 17.8441C2.99129 17.7441 2.77201 17.5976 2.58725 17.4128C2.40249 17.2281 2.2559 17.0087 2.15591 16.7673C2.05592 16.5259 2.00443 16.2672 2.00443 16.0059V4.00884C2.00248 3.74632 2.05257 3.48602 2.15169 3.24291C2.25081 2.99981 2.39699 2.77872 2.58194 2.5924C2.7669 2.40607 2.9869 2.25819 3.22927 2.15728C3.47163 2.05637 3.73163 2.00444 3.99416 2.00445H11.9971C12.5287 2.00445 13.0385 2.2156 13.4144 2.5915C13.7903 2.9674 14.0015 3.47724 14.0015 4.00884ZM11.9971 0H3.99416C3.46841 -3.57936e-06 2.94776 0.103802 2.46221 0.305446C1.97666 0.507089 1.53577 0.802601 1.16469 1.17505C0.793608 1.5475 0.499704 1.98957 0.299851 2.47586C0.0999968 2.96215 -0.00191287 3.48309 2.71871e-05 4.00884V16.0059C2.71871e-05 17.0652 0.420865 18.0811 1.16991 18.8302C1.91895 19.5792 2.93486 20 3.99416 20H11.9971C12.5216 20 13.041 19.8967 13.5255 19.696C14.0101 19.4952 14.4505 19.2011 14.8214 18.8302C15.1922 18.4593 15.4865 18.019 15.6872 17.5344C15.8879 17.0498 15.9911 16.5304 15.9911 16.0059V4.00884C15.9931 3.48309 15.8913 2.96215 15.6914 2.47586C15.4916 1.98957 15.1977 1.5475 14.8266 1.17505C14.4555 0.802601 14.0145 0.507089 13.529 0.305446C13.0434 0.103802 12.5229 -3.57936e-06 11.9971 0Z" fill="black"/>
</g>
<defs>
<clipPath id="clip0_951_6532">
<rect width="16.0059" height="20" fill="white"/>
</clipPath>
</defs>
</svg>
