<svg width="20" height="20" viewBox="0 0 20 20" fill="none" xmlns="http://www.w3.org/2000/svg">
<path d="M10.0074 18.625L18.4983 10.1232C18.9744 9.6473 19.3521 9.08236 19.6097 8.46062C19.8674 7.83888 20 7.17253 20 6.49957C20 5.8266 19.8674 5.16021 19.6097 4.53847C19.3521 3.91673 18.9744 3.35178 18.4983 2.87592C18.0223 2.40006 17.4571 2.02262 16.8351 1.76508C16.2131 1.50755 15.5464 1.375 14.8731 1.375C14.1998 1.375 13.5331 1.50755 12.9111 1.76508C12.2891 2.02262 11.7239 2.40006 11.2478 2.87592L10.0074 4.11577L8.75217 2.87592C7.79069 1.91488 6.48666 1.375 5.12691 1.375C3.76717 1.375 2.46314 1.91488 1.50166 2.87592C0.540174 3.83697 0 5.14045 0 6.49957C0 7.85869 0.540174 9.16212 1.50166 10.1232L10.0074 18.625ZM10.0074 6.94974L12.6654 4.29289C13.2529 3.70569 14.0497 3.37583 14.8805 3.37583C15.7113 3.37583 16.508 3.70569 17.0955 4.29289C17.683 4.88008 18.013 5.67649 18.013 6.50691C18.013 7.33733 17.683 8.13373 17.0955 8.72093L10.0074 15.8058L2.91927 8.72093C2.3318 8.13373 2.00174 7.33733 2.00174 6.50691C2.00174 5.67649 2.3318 4.88008 2.91927 4.29289C3.50673 3.70569 4.3035 3.37583 5.13431 3.37583C5.96511 3.37583 6.76188 3.70569 7.34934 4.29289L10.0074 6.94974Z" fill="black"/>
</svg>
