<svg width="19" height="20" viewBox="0 0 19 20" fill="none" xmlns="http://www.w3.org/2000/svg">
<g clip-path="url(#clip0_951_6523)">
<path d="M10.4591 3.81738H8.55493V4.7718C8.00182 4.80455 7.47987 5.0391 7.08744 5.4312C6.69502 5.82329 6.45925 6.34578 6.4248 6.90011C6.39034 7.45444 6.55963 8.00227 6.90046 8.44016C7.24129 8.87806 7.73019 9.17574 8.27497 9.27705L10.8652 9.74019C10.9513 9.75703 11.0289 9.80336 11.0847 9.87121C11.1404 9.93907 11.1708 10.0242 11.1708 10.1121C11.1708 10.2 11.1404 10.2852 11.0847 10.3531C11.0289 10.4209 10.9513 10.4672 10.8652 10.484H6.66477V12.3788H8.56895V13.3472H10.4731V12.3928H10.8091C11.3706 12.386 11.9096 12.1706 12.3218 11.7884C12.734 11.4063 12.9901 10.8845 13.0406 10.3239C13.0912 9.76335 12.9326 9.20395 12.5954 8.75391C12.2582 8.30387 11.7664 7.99515 11.2152 7.88755L8.62501 7.42441C8.52995 7.39811 8.44769 7.33804 8.39359 7.2554C8.33948 7.17275 8.31727 7.07316 8.33103 6.97528C8.35204 6.89345 8.39877 6.82059 8.46435 6.7675C8.52992 6.71441 8.61086 6.68392 8.69508 6.68055H12.3635V4.78581H10.4731L10.4591 3.81738Z" fill="black"/>
<path d="M17.0959 16.9123L13.7495 15.2421H3.80836C3.5583 15.2421 3.31077 15.1928 3.07974 15.0968C2.84871 15.0009 2.6387 14.8603 2.46188 14.683C2.28506 14.5058 2.14481 14.2954 2.04912 14.0638C1.95342 13.8322 1.90418 13.584 1.90418 13.3333V3.81755C1.90418 3.56688 1.95342 3.31868 2.04912 3.08709C2.14481 2.85551 2.28506 2.64508 2.46188 2.46783C2.6387 2.29059 2.84871 2.15 3.07974 2.05408C3.31077 1.95815 3.5583 1.90879 3.80836 1.90879H15.2616C15.511 1.90879 15.758 1.95824 15.9882 2.05434C16.2185 2.15043 16.4275 2.29126 16.6032 2.46869C16.7789 2.64612 16.9178 2.85666 17.012 3.08816C17.1062 3.31967 17.1537 3.56755 17.1518 3.81755L17.0959 16.9123ZM13.3014 17.1369L19.0001 19.9439V3.81755C19.0019 3.31688 18.905 2.8208 18.7152 2.35771C18.5253 1.89463 18.2461 1.47365 17.8936 1.11898C17.5411 0.764301 17.1222 0.482891 16.6609 0.29087C16.1997 0.0988487 15.705 -3.40856e-06 15.2056 0H3.80836C3.30823 0 2.81301 0.0987635 2.35096 0.290613C1.8889 0.482463 1.46921 0.763672 1.11557 1.11816C0.761929 1.47266 0.481264 1.89348 0.289874 2.35664C0.0984842 2.81981 0 3.31622 0 3.81755V13.3474C-3.4004e-06 13.848 0.0986547 14.3438 0.290216 14.8062C0.481777 15.2686 0.762428 15.6885 1.11626 16.0418C1.47008 16.3952 1.89018 16.6751 2.35215 16.8654C2.81413 17.0557 3.3089 17.1527 3.80836 17.1509L13.3014 17.1369Z" fill="black"/>
</g>
<defs>
<clipPath id="clip0_951_6523">
<rect width="19" height="20" fill="white"/>
</clipPath>
</defs>
</svg>
