<svg width="18" height="18" viewBox="0 0 18 18" fill="none" xmlns="http://www.w3.org/2000/svg">
<g clip-path="url(#clip0_951_6537)">
<path d="M7.99019 9.99512H4.99756V12H7.99019V9.99512Z" fill="black"/>
<path d="M13.0025 6.00004V2.00496H14.0049C14.5341 2.00495 15.0419 2.21413 15.4175 2.58694C15.7931 2.95975 16.006 3.46592 16.0099 3.9951V6.00004H13.0025ZM2.00498 8.00493H16.0099V15.9951H13.0615V9.99511H11.0713V15.9951H2.06392L2.00498 8.00493ZM11.0123 6.00004H7.00246V2.00496H11.0123V6.00004ZM2.00498 6.00004V3.9951C2.00887 3.46592 2.22182 2.95975 2.5974 2.58694C2.97297 2.21413 3.48068 2.00495 4.00987 2.00496H5.01232V6.00004H2.00498ZM4.00987 2.72054e-05C3.48399 -0.00191333 2.96288 0.0999764 2.47647 0.299879C1.99006 0.499782 1.54793 0.793758 1.17538 1.16493C0.802843 1.5361 0.507259 1.97719 0.305566 2.46286C0.103873 2.94853 -3.58024e-06 3.46922 0 3.9951V18H18V3.9951C18 2.93554 17.5791 1.91937 16.8299 1.17015C16.0806 0.420924 15.0645 2.72054e-05 14.0049 2.72054e-05H4.00987Z" fill="black"/>
</g>
<defs>
<clipPath id="clip0_951_6537">
<rect width="18" height="18" fill="white"/>
</clipPath>
</defs>
</svg>
