<svg width="21" height="20" viewBox="0 0 21 20" fill="none" xmlns="http://www.w3.org/2000/svg">
<g clip-path="url(#clip0_951_6528)">
<path d="M16.6984 12.2183C16.7978 12.0981 16.9212 11.9999 17.0608 11.9301C17.2003 11.8604 17.3529 11.8205 17.5088 11.8131C17.6646 11.8058 17.8203 11.831 17.9658 11.8873C18.1113 11.9436 18.2434 12.0296 18.3537 12.14C18.464 12.2503 18.5501 12.3824 18.6064 12.5279C18.6627 12.6734 18.688 12.8291 18.6806 12.985C18.6732 13.1408 18.6334 13.2933 18.5636 13.4329C18.4938 13.5724 18.3957 13.6959 18.2755 13.7953L14.9593 17.1262C14.6816 17.4056 14.3507 17.6265 13.9862 17.7758C13.6216 17.9252 13.2309 18 12.837 17.9957H1.98955V15.446C1.9895 14.7435 2.24035 14.0639 2.69697 13.53L3.06543 13.0879C3.34286 12.7459 3.69341 12.4704 4.09128 12.2816C4.48916 12.0929 4.92424 11.9957 5.36461 11.9972H10.9947C11.2492 11.9871 11.498 12.0743 11.6906 12.2412C11.8831 12.408 12.005 12.6419 12.0312 12.8953C12.0575 13.1487 11.9863 13.4026 11.8321 13.6053C11.6779 13.8081 11.4523 13.9445 11.201 13.9869H5.49721V15.9913H10.9947C11.1761 16.0066 11.3585 16.0066 11.54 15.9913C12.6101 15.8438 13.6032 15.3523 14.3697 14.5912L16.6984 12.2183ZM4.43608 10.037C4.18022 9.36903 4.05028 8.65943 4.05287 7.94413C4.05505 7.03703 4.26295 6.14225 4.66088 5.32709C5.05882 4.51193 5.6364 3.79763 6.35026 3.23795C7.06412 2.67827 7.89565 2.28775 8.78222 2.09582C9.66879 1.9039 10.5873 1.91558 11.4688 2.12992C12.3502 2.34425 13.1715 2.7557 13.8709 3.3333C14.5704 3.9109 15.1297 4.6396 15.5069 5.46459C15.884 6.28957 16.0691 7.18934 16.0483 8.0962C16.0275 9.00307 15.8013 9.89344 15.3867 10.7003L13.9129 12.1741C13.7971 11.7442 13.5855 11.3461 13.2939 11.0097C13.5359 10.6848 13.6913 10.3037 13.7455 9.90216C13.7996 9.50063 13.7506 9.09195 13.6031 8.71456C13.4557 8.33718 13.2147 8.00351 12.9027 7.74497C12.5908 7.48643 12.2182 7.31152 11.82 7.23672L9.09338 6.73562C9.04164 6.72891 8.99197 6.71126 8.94756 6.6839C8.90314 6.65653 8.865 6.62004 8.83574 6.57685C8.80649 6.53366 8.78675 6.48477 8.77781 6.43337C8.76887 6.38197 8.77098 6.32927 8.78393 6.27873C8.80124 6.19033 8.84915 6.11085 8.91922 6.05425C8.9893 5.99765 9.07708 5.96752 9.16714 5.96919H13.0286V3.97955H11.0241V2.9773H9.0197V3.97955C8.43828 4.0166 7.89051 4.26494 7.47948 4.67783C7.06844 5.09072 6.8225 5.63967 6.78807 6.22125C6.75365 6.80284 6.93309 7.37692 7.29255 7.83542C7.652 8.29392 8.16668 8.60518 8.73967 8.71056L11.4516 9.19691C11.5029 9.20744 11.5517 9.22802 11.5951 9.25745C11.6384 9.28688 11.6756 9.32458 11.7044 9.36841C11.7331 9.41223 11.7529 9.46133 11.7626 9.51283C11.7724 9.56434 11.7718 9.61725 11.761 9.66855C11.7437 9.75695 11.6959 9.83643 11.6258 9.89303C11.5557 9.94963 11.468 9.97972 11.3779 9.97804H5.39412C5.06299 9.97819 4.73246 10.0078 4.40658 10.0665M17.8038 9.86015C17.945 9.24107 18.0191 8.60859 18.0248 7.97364C18.0248 5.85113 17.1817 3.81553 15.6809 2.31469C14.18 0.813843 12.1444 -0.0292969 10.0219 -0.0292969C7.89939 -0.0292969 5.86388 0.813843 4.36304 2.31469C2.8622 3.81553 2.01897 5.85113 2.01897 7.97364C2.01635 8.95759 2.20143 9.93299 2.56428 10.8476C2.18782 11.1134 1.84616 11.4253 1.54733 11.7761L1.17887 12.2183C0.43262 13.1167 0.0257751 14.2486 0.0293198 15.4165V19.9707H12.8664C14.1935 19.9642 15.4646 19.4346 16.4037 18.4968L19.7345 15.166C20.0251 14.8758 20.2555 14.5312 20.4128 14.1518C20.5701 13.7725 20.6511 13.3659 20.6511 12.9552C20.6511 12.5446 20.5701 12.1379 20.4128 11.7586C20.2555 11.3792 20.0251 11.0347 19.7345 10.7445C19.2133 10.232 18.5315 9.91453 17.8038 9.8454" fill="black"/>
</g>
<defs>
<clipPath id="clip0_951_6528">
<rect width="20.619" height="20" fill="white"/>
</clipPath>
</defs>
</svg>
