  <svg width="126" height="48" viewBox="0 0 126 48" fill="none" xmlns="http://www.w3.org/2000/svg">
    <rect width="126" height="48" rx="24" fill="#F0F1F5" />
    <path d="M18.3863 14.3111C18.1477 14.5522 18.0078 14.9255 18.0078 15.3999V32.602C18.0078 33.0842 18.1477 33.4575 18.3863 33.6908L18.4439 33.7452L28.6393 24.1176V24.0009V23.8843L18.4439 14.2567L18.3863 14.3111Z" fill="url(#paint0_linear)" />
    <path d="M32.0381 27.3284L28.6396 24.1166V24V23.8833L32.0381 20.6715L32.1121 20.7104L36.136 22.8724C37.288 23.4867 37.288 24.4977 36.136 25.1198L32.1121 27.2818L32.0381 27.3284Z" fill="url(#paint1_linear)" />
    <path d="M32.1121 27.2818L28.6396 24L18.3867 33.6898C18.7652 34.0709 19.3906 34.1175 20.0983 33.7365L32.1121 27.2818Z" fill="url(#paint2_linear)" />
    <path d="M32.1121 20.7182L20.09 14.2635C19.3823 13.8825 18.7569 13.9291 18.3784 14.3102L28.6396 24L32.1121 20.7182Z" fill="url(#paint3_linear)" />
    <path opacity="0.12" d="M36.1364 25.011L32.0303 27.2118L32.1043 27.2818L36.1282 25.1199C36.7042 24.8088 36.9922 24.4044 36.9922 24C36.951 24.3655 36.663 24.731 36.1364 25.011Z" fill="black" />
    <path opacity="0.25" d="M20.0901 14.373L36.136 22.9896C36.6544 23.2695 36.9506 23.6273 37 24.0006C37 23.5962 36.712 23.184 36.136 22.8807L20.0901 14.2641C18.9381 13.6497 18 14.163 18 15.4073V15.5239C18 14.2719 18.9463 13.7586 20.0901 14.373Z" fill="#F5F5F5" />
    <path d="M42 12.1791V17.6777H43.8941C45.5695 17.6777 46.5537 16.6603 46.5537 14.9265C46.5537 13.1965 45.5656 12.1791 43.8941 12.1791H42ZM42.703 12.7964H43.8473C45.1282 12.7964 45.8351 13.5585 45.8351 14.9341C45.8351 16.2983 45.1243 17.0604 43.8473 17.0604H42.703V12.7964Z" fill="#111111" />
    <path d="M47.5182 17.6777H48.1977V13.7148H47.5182V17.6777ZM47.858 13.0098C48.0962 13.0098 48.2837 12.8231 48.2837 12.5944C48.2837 12.362 48.0962 12.1791 47.858 12.1791C47.6236 12.1791 47.4323 12.362 47.4323 12.5944C47.4323 12.8231 47.6236 13.0098 47.858 13.0098Z" fill="#111111" />
    <path d="M49.2052 14.8084C49.2052 15.38 49.5762 15.7267 50.3417 15.9058L50.986 16.0582C51.4508 16.1688 51.6109 16.3326 51.6109 16.6184C51.6109 16.9766 51.2711 17.2052 50.7205 17.2052C50.1698 17.2052 49.8574 16.988 49.7754 16.5346H49.0958C49.1739 17.2776 49.7676 17.7463 50.7205 17.7463C51.6265 17.7463 52.2944 17.2586 52.2944 16.5689C52.2944 16.0011 51.9975 15.6886 51.1774 15.4943L50.533 15.3419C50.08 15.2352 49.873 15.0484 49.873 14.7741C49.873 14.4273 50.2011 14.1873 50.697 14.1873C51.1969 14.1873 51.5094 14.4426 51.5601 14.8579H52.2084C52.1811 14.1568 51.5875 13.6462 50.697 13.6462C49.8183 13.6462 49.2052 14.1301 49.2052 14.8084Z" fill="#111111" />
    <path d="M55.1334 13.6462C54.5437 13.6462 54.0712 13.9396 53.8212 14.3854H53.8056V13.7148H53.1612V19H53.8407V17.0338H53.8564C54.0985 17.4682 54.5672 17.7463 55.1491 17.7463C56.1723 17.7463 56.8713 16.9385 56.8713 15.6962C56.8713 14.454 56.1684 13.6462 55.1334 13.6462ZM55.0007 17.1633C54.3055 17.1633 53.8368 16.5803 53.8368 15.6962C53.8368 14.816 54.3055 14.2292 55.0007 14.2292C55.7232 14.2292 56.1762 14.8008 56.1762 15.6962C56.1762 16.5955 55.7232 17.1633 55.0007 17.1633Z" fill="#111111" />
    <path d="M59.4019 17.7463C60.5228 17.7463 61.2804 16.9575 61.2804 15.6962C61.2804 14.4311 60.5228 13.6462 59.4019 13.6462C58.2771 13.6462 57.5195 14.4311 57.5195 15.6962C57.5195 16.9575 58.2771 17.7463 59.4019 17.7463ZM59.4019 17.1633C58.6833 17.1633 58.2107 16.6298 58.2107 15.6962C58.2107 14.7627 58.6833 14.2292 59.4019 14.2292C60.1205 14.2292 60.5891 14.7627 60.5891 15.6962C60.5891 16.6298 60.1205 17.1633 59.4019 17.1633Z" fill="#111111" />
    <path d="M62.1277 17.6777H62.8073V15.3457C62.8073 14.675 63.2251 14.233 63.8656 14.233C64.4905 14.233 64.799 14.5836 64.799 15.2237V17.6777H65.4786V15.1056C65.4786 14.2063 64.9631 13.6462 64.0726 13.6462C63.4438 13.6462 63.0103 13.9205 62.7838 14.3473H62.7682V13.7148H62.1277V17.6777Z" fill="#111111" />
    <path d="M66.5407 17.6777H67.2202V13.7148H66.5407V17.6777ZM67.1499 13.1432L68.0638 12H67.3179L66.6227 13.1432H67.1499Z" fill="#111111" />
    <path d="M71.6293 13.7148H70.9224L69.7976 16.9728H69.782L68.6612 13.7148H67.9465L69.4423 17.6777H70.1374L71.6293 13.7148Z" fill="#111111" />
    <path d="M73.8357 14.2216C74.4762 14.2216 74.9019 14.6941 74.9175 15.3571H72.7109C72.7539 14.6979 73.1991 14.2216 73.8357 14.2216ZM74.9019 16.5422C74.7886 16.9156 74.4098 17.1709 73.8943 17.1709C73.164 17.1709 72.707 16.6717 72.707 15.9134V15.8753H75.6205V15.6238C75.6205 14.4235 74.9448 13.6462 73.8474 13.6462C72.7265 13.6462 72.008 14.4807 72.008 15.7115C72.008 16.9575 72.7148 17.7463 73.8786 17.7463C74.7652 17.7463 75.4525 17.2357 75.5697 16.5422H74.9019Z" fill="#111111" />
    <path d="M76.5029 17.6777H77.1825V12.1791H76.5029V17.6777Z" fill="#111111" />
    <path d="M80.0604 17.6777H80.74V15.3457C80.74 14.675 81.1579 14.233 81.7984 14.233C82.4232 14.233 82.7318 14.5836 82.7318 15.2237V17.6777H83.4113V15.1056C83.4113 14.2063 82.8958 13.6462 82.0053 13.6462C81.3766 13.6462 80.9431 13.9205 80.7166 14.3473H80.7009V13.7148H80.0604V17.6777Z" fill="#111111" />
    <path d="M86.1215 17.7463C87.2423 17.7463 88 16.9575 88 15.6962C88 14.4311 87.2423 13.6462 86.1215 13.6462C84.9967 13.6462 84.2391 14.4311 84.2391 15.6962C84.2391 16.9575 84.9967 17.7463 86.1215 17.7463ZM86.1215 17.1633C85.4029 17.1633 84.9303 16.6298 84.9303 15.6962C84.9303 14.7627 85.4029 14.2292 86.1215 14.2292C86.8401 14.2292 87.3087 14.7627 87.3087 15.6962C87.3087 16.6298 86.8401 17.1633 86.1215 17.1633Z" fill="#111111" />
    <path d="M63.097 26.5878C61.2675 26.5878 59.7728 27.9542 59.7728 29.8321C59.7728 31.7023 61.2675 33.0763 63.097 33.0763C64.9264 33.0763 66.4211 31.7023 66.4211 29.8321C66.4211 27.9542 64.9264 26.5878 63.097 26.5878ZM63.097 31.8015C62.0927 31.8015 61.2286 30.9924 61.2286 29.8321C61.2286 28.6641 62.0927 27.8626 63.097 27.8626C64.1012 27.8626 64.9653 28.6641 64.9653 29.8321C64.9653 30.9924 64.0934 31.8015 63.097 31.8015ZM55.8415 26.5878C54.012 26.5878 52.5173 27.9542 52.5173 29.8321C52.5173 31.7023 54.012 33.0763 55.8415 33.0763C57.6709 33.0763 59.1656 31.7023 59.1656 29.8321C59.1656 27.9542 57.6709 26.5878 55.8415 26.5878ZM55.8415 31.8015C54.8372 31.8015 53.9731 30.9924 53.9731 29.8321C53.9731 28.6641 54.8372 27.8626 55.8415 27.8626C56.8457 27.8626 57.7098 28.6641 57.7098 29.8321C57.7098 30.9924 56.8457 31.8015 55.8415 31.8015ZM47.2159 27.5878V28.9618H50.5789C50.4777 29.7328 50.213 30.3053 49.816 30.6947C49.3255 31.1756 48.5626 31.7023 47.2236 31.7023C45.1529 31.7023 43.5336 30.0687 43.5336 28.0382C43.5336 26.0076 45.1529 24.374 47.2236 24.374C48.3369 24.374 49.1543 24.8015 49.7537 25.3588L50.7424 24.3893C49.9016 23.6031 48.7884 23 47.2159 23C44.3822 23 42 25.2595 42 28.0458C42 30.8244 44.3822 33.0916 47.2159 33.0916C48.7495 33.0916 49.9016 32.6031 50.8047 31.6794C51.7311 30.771 52.0191 29.4885 52.0191 28.458C52.0191 28.1374 51.9958 27.8397 51.9413 27.5954H47.2159V27.5878ZM82.489 28.6565C82.2166 27.9313 81.3758 26.5878 79.6553 26.5878C77.9505 26.5878 76.5336 27.9008 76.5336 29.8321C76.5336 31.6489 77.9349 33.0763 79.8188 33.0763C81.3369 33.0763 82.2166 32.1679 82.5747 31.6412L81.4459 30.9008C81.0722 31.4427 80.5584 31.8015 79.8188 31.8015C79.0793 31.8015 78.5499 31.4656 78.2151 30.8168L82.6447 29.0229L82.489 28.6565ZM77.9738 29.7405C77.9349 28.4886 78.9625 27.8473 79.702 27.8473C80.2781 27.8473 80.7686 28.1298 80.9321 28.5344L77.9738 29.7405ZM74.3772 32.8855H75.833V23.3435H74.3772V32.8855ZM71.995 27.313H71.9405C71.6136 26.9313 70.9908 26.5878 70.1967 26.5878C68.5386 26.5878 67.0205 28.0153 67.0205 29.8473C67.0205 31.6641 68.5386 33.084 70.1967 33.084C70.983 33.084 71.6136 32.7405 71.9405 32.3435H71.9873V32.8092C71.9873 34.0534 71.31 34.7176 70.2201 34.7176C69.3326 34.7176 68.7799 34.0916 68.5541 33.5649L67.2852 34.084C67.6511 34.9466 68.6164 36 70.2201 36C71.925 36 73.3652 35.0153 73.3652 32.6183V26.7863H71.9873V27.313H71.995ZM70.3213 31.8015C69.3171 31.8015 68.4763 30.9771 68.4763 29.8473C68.4763 28.7023 69.3171 27.8702 70.3213 27.8702C71.31 27.8702 72.0885 28.7099 72.0885 29.8473C72.0962 30.9771 71.3178 31.8015 70.3213 31.8015ZM89.3086 23.3435H85.8287V32.8855H87.2845V29.2672H89.3163C90.9278 29.2672 92.5081 28.1221 92.5081 26.3053C92.5081 24.4885 90.9122 23.3435 89.3086 23.3435ZM89.3397 27.9389H87.2767V24.6641H89.3397C90.4296 24.6641 91.0446 25.5496 91.0446 26.2977C91.0446 27.0458 90.4296 27.9389 89.3397 27.9389ZM98.3234 26.5725C97.2725 26.5725 96.1826 27.0305 95.7311 28.0305L97.0233 28.5573C97.2958 28.0305 97.8096 27.855 98.3468 27.855C99.0941 27.855 99.8648 28.2977 99.8726 29.084V29.1832C99.6079 29.0382 99.0474 28.8168 98.3546 28.8168C96.9611 28.8168 95.552 29.5649 95.552 30.9618C95.552 32.2366 96.6886 33.0611 97.9653 33.0611C98.9384 33.0611 99.4834 32.6336 99.8181 32.1298H99.8648V32.8702H101.266V29.2137C101.274 27.5191 99.9816 26.5725 98.3234 26.5725ZM98.1444 31.8015C97.6695 31.8015 97.0078 31.5649 97.0078 30.9924C97.0078 30.2595 97.833 29.9771 98.5492 29.9771C99.1875 29.9771 99.4911 30.1145 99.8726 30.2977C99.7636 31.1756 98.9851 31.8015 98.1444 31.8015ZM106.381 26.7786L104.715 30.916H104.668L102.94 26.7786H101.375L103.967 32.5649L102.488 35.7786H104.006L108 26.7786H106.381ZM93.3022 32.8855H94.758V23.3435H93.3022V32.8855Z" fill="#111111" />
    <defs>
      <linearGradient id="paint0_linear" x1="27.7339" y1="15.2208" x2="14.7034" y2="29.0084" gradientUnits="userSpaceOnUse">
        <stop/>
        <stop offset="0.00657445"/>
        <stop offset="0.2601"/>
        <stop offset="0.5122"/>
        <stop offset="0.7604"/>
        <stop offset="1"/>
      </linearGradient>
      <linearGradient id="paint1_linear" x1="37.6372" y1="24.0011" x2="17.7264" y2="24.0011" gradientUnits="userSpaceOnUse">
        <stop/>
        <stop offset="0.4087"/>
        <stop offset="0.7754" />
        <stop offset="1"/>
      </linearGradient>
      <linearGradient id="paint2_linear" x1="30.2253" y1="25.7856" x2="12.555" y2="44.4828" gradientUnits="userSpaceOnUse">
        <stop/>
        <stop offset="1"/>
      </linearGradient>
      <linearGradient id="paint3_linear" x1="15.8006" y1="8.58355" x2="23.6912" y2="16.9326" gradientUnits="userSpaceOnUse">
        <stop/>
        <stop offset="0.0685"/>
        <stop offset="0.4762"/>
        <stop offset="0.8009"/>
        <stop offset="1"/>
      </linearGradient>
    </defs>
  </svg>