<svg width="22" height="12" viewBox="0 0 22 12" fill="none" xmlns="http://www.w3.org/2000/svg">
<path d="M1.84468 8.53601L1.9516 8.3675C3.86257 5.35495 5.99074 2 11.0005 2C16.0102 2 18.1384 5.35495 20.0493 8.3675L20.1562 8.53601L21.8447 7.46399C21.7847 7.36959 21.724 7.27358 21.6624 7.17615C19.801 4.23351 17.123 0 11.0005 0C4.87794 0 2.19997 4.23351 0.338549 7.17615C0.276977 7.27349 0.21613 7.36968 0.15625 7.46399L1.84468 8.53601Z" fill="black"/>
<path d="M15.0005 8C15.0005 10.2091 13.2096 12 11.0005 12C8.79132 12 7.00046 10.2091 7.00046 8C7.00046 5.79086 8.79132 4 11.0005 4C13.2096 4 15.0005 5.79086 15.0005 8ZM13.0005 8C13.0005 6.89543 12.105 6 11.0005 6C9.89589 6 9.00046 6.89543 9.00046 8C9.00046 9.10457 9.89589 10 11.0005 10C12.105 10 13.0005 9.10457 13.0005 8Z" fill="black"/>
</svg>
