<svg width="22" height="12" viewBox="0 0 22 12" fill="none" xmlns="http://www.w3.org/2000/svg">
<path d="M1.95111 0.6325L1.84419 0.463989L0.155762 1.53601C0.215642 1.63032 0.276321 1.72624 0.337893 1.82358C0.854383 2.64008 1.43391 3.55623 2.13228 4.45348L0.292868 6.29289L1.70708 7.7071L3.45971 5.95448C4.36708 6.84498 5.44547 7.63793 6.76243 8.19134L6.03845 10.7253L7.9615 11.2747L8.67521 8.77672C9.39023 8.92087 10.1629 9 11 9C11.837 9 12.6097 8.92087 13.3247 8.77672L14.0385 11.2747L15.9615 10.7253L15.2375 8.19134C16.5545 7.63793 17.6329 6.84498 18.5402 5.95448L20.2929 7.7071L21.7071 6.29289L19.8677 4.45348C20.566 3.55623 21.1454 2.64035 21.6619 1.82385C21.7235 1.72642 21.7843 1.63041 21.8442 1.53601L20.1558 0.463989L20.0488 0.632497C18.1379 3.64505 16.0097 7 11 7C5.99025 7 3.86209 3.64505 1.95111 0.6325Z" fill="#727683"/>
</svg>
