<?xml version="1.0" encoding="UTF-8" standalone="no"?>
<!-- Created with Inkscape (http://www.inkscape.org/) -->

<svg
   xmlns:dc="http://purl.org/dc/elements/1.1/"
   xmlns:cc="http://creativecommons.org/ns#"
   xmlns:rdf="http://www.w3.org/1999/02/22-rdf-syntax-ns#"
   xmlns:svg="http://www.w3.org/2000/svg"
   xmlns="http://www.w3.org/2000/svg"
   xmlns:sodipodi="http://sodipodi.sourceforge.net/DTD/sodipodi-0.dtd"
   xmlns:inkscape="http://www.inkscape.org/namespaces/inkscape"
   width="4.4979167mm"
   height="4.4979167mm"
   viewBox="0 0 4.4979167 4.4979167"
   version="1.1"
   id="svg3754"
   inkscape:version="0.92.3 (2405546, 2018-03-11)"
   sodipodi:docname="drawing-1.svg">
  <defs
     id="defs3748" />
  <sodipodi:namedview
     id="base"
     pagecolor="#ffffff"
     bordercolor="#666666"
     borderopacity="1.0"
     inkscape:pageopacity="0.0"
     inkscape:pageshadow="2"
     inkscape:zoom="11.2"
     inkscape:cx="55.653777"
     inkscape:cy="7.2488776"
     inkscape:document-units="mm"
     inkscape:current-layer="layer1"
     showgrid="false"
     inkscape:window-width="1920"
     inkscape:window-height="1052"
     inkscape:window-x="1920"
     inkscape:window-y="0"
     inkscape:window-maximized="1" />
  <metadata
     id="metadata3751">
    <rdf:RDF>
      <cc:Work
         rdf:about="">
        <dc:format>image/svg+xml</dc:format>
        <dc:type
           rdf:resource="http://purl.org/dc/dcmitype/StillImage" />
        <dc:title></dc:title>
      </cc:Work>
    </rdf:RDF>
  </metadata>
  <g
     inkscape:label="Layer 1"
     inkscape:groupmode="layer"
     id="layer1"
     transform="translate(-70.32247,-117.85818)">
    <g
       style="fill:none"
       id="g3770"
       transform="matrix(0.26458333,0,0,0.26458333,70.32247,117.85818)">
      <path
         id="path3756"
         d="m 8.5,9.207 2.536,2.536 0.707,-0.707 L 9.207,8.5 11.743,5.964 11.036,5.257 8.5,7.793 5.964,5.257 5.257,5.964 7.793,8.5 5.257,11.036 5.964,11.743 Z"
         inkscape:connector-curvature="0"
         style="fill:#e5615c" />
      <path
         id="path3758"
         d="M 8.5,17 C 3.42,17 0,13.58 0,8.5 0,3.42 3.42,0 8.5,0 13.58,0 17,3.42 17,8.5 17,13.58 13.58,17 8.5,17 Z m 0,-1 C 6.19,16 4.33,15.227 3.052,13.948 1.773,12.67 1,10.811 1,8.5 1,6.19 1.773,4.33 3.052,3.052 4.33,1.773 6.189,1 8.5,1 10.81,1 12.67,1.773 13.948,3.052 15.227,4.33 16,6.189 16,8.5 16,10.81 15.227,12.67 13.948,13.948 12.67,15.227 10.811,16 8.5,16 Z"
         inkscape:connector-curvature="0"
         style="clip-rule:evenodd;fill:#e5615c;fill-rule:evenodd" />
    </g>
  </g>
</svg>
