<?xml version="1.0" encoding="UTF-8" standalone="no"?>
<svg
   xmlns:dc="http://purl.org/dc/elements/1.1/"
   xmlns:cc="http://creativecommons.org/ns#"
   xmlns:rdf="http://www.w3.org/1999/02/22-rdf-syntax-ns#"
   xmlns:svg="http://www.w3.org/2000/svg"
   xmlns="http://www.w3.org/2000/svg"
   id="svg8"
   version="1.1"
   viewBox="0 0 4.4979167 4.4979167"
   height="4.4979167mm"
   width="4.4979167mm">
  <defs
     id="defs2" />
  <metadata
     id="metadata5">
    <rdf:RDF>
      <cc:Work
         rdf:about="">
        <dc:format>image/svg+xml</dc:format>
        <dc:type
           rdf:resource="http://purl.org/dc/dcmitype/StillImage" />
        <dc:title></dc:title>
      </cc:Work>
    </rdf:RDF>
  </metadata>
  <g
     transform="translate(-83.173661,-162.45937)"
     id="layer1">
    <g
       transform="matrix(0.26458333,0,0,0.26458333,83.173661,162.45937)"
       id="g3727"
       style="fill:none">
      <path
         style="fill:#15aa00"
         d="M 12.854,6.354 12.147,5.646 7,10.793 4.854,8.646 4.146,9.354 7,12.207 Z"
         id="path3713" />
      <path
         style="clip-rule:evenodd;fill:#15aa00;fill-rule:evenodd"
         d="M 8.5,17 C 3.42,17 0,13.58 0,8.5 0,3.42 3.42,0 8.5,0 13.58,0 17,3.42 17,8.5 17,13.58 13.58,17 8.5,17 Z m 0,-1 C 6.19,16 4.33,15.227 3.052,13.948 1.773,12.67 1,10.811 1,8.5 1,6.19 1.773,4.33 3.052,3.052 4.33,1.773 6.189,1 8.5,1 10.81,1 12.67,1.773 13.948,3.052 15.227,4.33 16,6.189 16,8.5 16,10.81 15.227,12.67 13.948,13.948 12.67,15.227 10.811,16 8.5,16 Z"
         id="path3715" />
    </g>
  </g>
</svg>
